<svg width="24" height="24" viewBox="0 0 24 24" fill="none" xmlns="http://www.w3.org/2000/svg">
<path d="M0 3C0 1.34315 1.34315 0 3 0H21C22.6569 0 24 1.34315 24 3V21C24 22.6569 22.6569 24 21 24H3C1.34315 24 0 22.6569 0 21V3Z" fill="url(#paint0_linear_78_42)"/>
<mask id="path-2-outside-1_78_42" maskUnits="userSpaceOnUse" x="4" y="4" width="17" height="15" fill="black">
<rect fill="white" x="4" y="4" width="17" height="15"/>
<path d="M9.61553 17.1538C8.29228 17.1538 7.23516 16.8511 6.44414 16.2456C5.65801 15.6401 5.24785 14.749 5.21367 13.5723H7.44756C7.48662 14.1191 7.70146 14.5317 8.09209 14.8101C8.4876 15.0835 8.98564 15.2202 9.58623 15.2202C10.1722 15.2202 10.6409 15.0957 10.9925 14.8467C11.3489 14.5977 11.5271 14.2729 11.5271 13.8726C11.5271 13.5063 11.366 13.2256 11.0437 13.0303C10.7215 12.8301 10.2625 12.6592 9.6668 12.5176L8.47295 12.2246C7.55498 12.0049 6.82988 11.6558 6.29766 11.1772C5.77031 10.6938 5.50664 10.0493 5.50664 9.24365C5.50664 8.58447 5.68486 8.0083 6.04131 7.51514C6.39775 7.01709 6.88603 6.63135 7.50615 6.35791C8.13115 6.07959 8.8416 5.94043 9.6375 5.94043C10.448 5.94043 11.1561 6.07959 11.7615 6.35791C12.367 6.63623 12.8382 7.02197 13.1751 7.51514C13.5169 8.0083 13.6927 8.57715 13.7024 9.22168H11.4759C11.4368 8.79687 11.2562 8.46484 10.9339 8.22559C10.6116 7.98633 10.1746 7.8667 9.62285 7.8667C9.06133 7.8667 8.6292 7.98389 8.32646 8.21826C8.02373 8.44775 7.87236 8.74072 7.87236 9.09717C7.87236 9.48291 8.04082 9.77588 8.37773 9.97607C8.71465 10.1714 9.11992 10.3252 9.59355 10.4375L10.5677 10.6792C11.2024 10.8208 11.7664 11.0283 12.2596 11.3018C12.7527 11.5703 13.1409 11.917 13.4241 12.3418C13.7073 12.7617 13.8489 13.2744 13.8489 13.8799C13.8489 14.8809 13.4754 15.6768 12.7283 16.2676C11.9812 16.8584 10.9437 17.1538 9.61553 17.1538ZM18.8083 8.81152V10.5254L17.2556 10.5254V14.4805C17.2556 15.0127 17.5144 15.2788 18.0319 15.2788C18.1198 15.2788 18.215 15.2715 18.3176 15.2568C18.425 15.2422 18.5178 15.2251 18.5959 15.2056L18.9548 16.9048C18.4714 17.0464 18.0026 17.1172 17.5485 17.1172C16.738 17.1172 16.1081 16.9121 15.6589 16.502C15.2146 16.0918 14.9924 15.5181 14.9924 14.7808V10.5254H13.8791V8.81152H14.9924L14.9924 6.86328L17.2556 6.86328V8.81152H18.8083Z"/>
</mask>
<path d="M9.61553 17.1538C8.29228 17.1538 7.23516 16.8511 6.44414 16.2456C5.65801 15.6401 5.24785 14.749 5.21367 13.5723H7.44756C7.48662 14.1191 7.70146 14.5317 8.09209 14.8101C8.4876 15.0835 8.98564 15.2202 9.58623 15.2202C10.1722 15.2202 10.6409 15.0957 10.9925 14.8467C11.3489 14.5977 11.5271 14.2729 11.5271 13.8726C11.5271 13.5063 11.366 13.2256 11.0437 13.0303C10.7215 12.8301 10.2625 12.6592 9.6668 12.5176L8.47295 12.2246C7.55498 12.0049 6.82988 11.6558 6.29766 11.1772C5.77031 10.6938 5.50664 10.0493 5.50664 9.24365C5.50664 8.58447 5.68486 8.0083 6.04131 7.51514C6.39775 7.01709 6.88603 6.63135 7.50615 6.35791C8.13115 6.07959 8.8416 5.94043 9.6375 5.94043C10.448 5.94043 11.1561 6.07959 11.7615 6.35791C12.367 6.63623 12.8382 7.02197 13.1751 7.51514C13.5169 8.0083 13.6927 8.57715 13.7024 9.22168H11.4759C11.4368 8.79687 11.2562 8.46484 10.9339 8.22559C10.6116 7.98633 10.1746 7.8667 9.62285 7.8667C9.06133 7.8667 8.6292 7.98389 8.32646 8.21826C8.02373 8.44775 7.87236 8.74072 7.87236 9.09717C7.87236 9.48291 8.04082 9.77588 8.37773 9.97607C8.71465 10.1714 9.11992 10.3252 9.59355 10.4375L10.5677 10.6792C11.2024 10.8208 11.7664 11.0283 12.2596 11.3018C12.7527 11.5703 13.1409 11.917 13.4241 12.3418C13.7073 12.7617 13.8489 13.2744 13.8489 13.8799C13.8489 14.8809 13.4754 15.6768 12.7283 16.2676C11.9812 16.8584 10.9437 17.1538 9.61553 17.1538ZM18.8083 8.81152V10.5254L17.2556 10.5254V14.4805C17.2556 15.0127 17.5144 15.2788 18.0319 15.2788C18.1198 15.2788 18.215 15.2715 18.3176 15.2568C18.425 15.2422 18.5178 15.2251 18.5959 15.2056L18.9548 16.9048C18.4714 17.0464 18.0026 17.1172 17.5485 17.1172C16.738 17.1172 16.1081 16.9121 15.6589 16.502C15.2146 16.0918 14.9924 15.5181 14.9924 14.7808V10.5254H13.8791V8.81152H14.9924L14.9924 6.86328L17.2556 6.86328V8.81152H18.8083Z" fill="white"/>
<path d="M6.44414 16.2456L5.83395 17.0379L5.83633 17.0397L6.44414 16.2456ZM5.21367 13.5723V12.5723H4.1842L4.21409 13.6013L5.21367 13.5723ZM7.44756 13.5723L8.44502 13.501L8.37868 12.5723H7.44756V13.5723ZM8.09209 14.8101L7.51181 15.6245L7.51758 15.6286L7.52341 15.6326L8.09209 14.8101ZM10.9925 14.8467L10.4198 14.0269L10.4145 14.0307L10.9925 14.8467ZM11.0437 13.0303L10.516 13.8798L10.5254 13.8855L11.0437 13.0303ZM9.6668 12.5176L9.42846 13.4888L9.43554 13.4905L9.6668 12.5176ZM8.47295 12.2246L8.71128 11.2534L8.70573 11.2521L8.47295 12.2246ZM6.29766 11.1772L5.6219 11.9144L5.62907 11.9209L6.29766 11.1772ZM6.04131 7.51514L6.85178 8.10093L6.8545 8.09713L6.04131 7.51514ZM7.50615 6.35791L7.90962 7.27291L7.91295 7.27143L7.50615 6.35791ZM11.7615 6.35791L11.3439 7.26651L11.7615 6.35791ZM13.1751 7.51514L12.3494 8.07925L12.3532 8.08477L13.1751 7.51514ZM13.7024 9.22168V10.2217H14.7177L14.7023 9.20653L13.7024 9.22168ZM11.4759 9.22168L10.4801 9.31325L10.5636 10.2217H11.4759V9.22168ZM8.32646 8.21826L8.9306 9.01521L8.93864 9.00899L8.32646 8.21826ZM8.37773 9.97607L7.86688 10.8358L7.8762 10.8412L8.37773 9.97607ZM9.59355 10.4375L9.83439 9.46688L9.82427 9.46448L9.59355 10.4375ZM10.5677 10.6792L10.3269 11.6498L10.3384 11.6526L10.35 11.6552L10.5677 10.6792ZM12.2596 11.3018L11.7746 12.1763L11.7813 12.18L12.2596 11.3018ZM13.4241 12.3418L12.5921 12.8965L12.595 12.9009L13.4241 12.3418ZM9.61553 16.1538C8.44009 16.1538 7.6189 15.8855 7.05195 15.4515L5.83633 17.0397C6.85141 17.8167 8.14448 18.1538 9.61553 18.1538V16.1538ZM7.05433 15.4533C6.55114 15.0658 6.24052 14.4822 6.21325 13.5432L4.21409 13.6013C4.25518 15.0159 4.76488 16.2145 5.83395 17.0379L7.05433 15.4533ZM5.21367 14.5723H7.44756L7.44756 12.5723H5.21367L5.21367 14.5723ZM6.4501 13.6435C6.507 14.4402 6.84177 15.1471 7.51181 15.6245L8.67236 13.9956C8.56116 13.9164 8.46624 13.7981 8.44502 13.501L6.4501 13.6435ZM7.52341 15.6326C8.12353 16.0475 8.83336 16.2202 9.58623 16.2202L9.58623 14.2202C9.13793 14.2202 8.85167 14.1195 8.66077 13.9875L7.52341 15.6326ZM9.58623 16.2202C10.3062 16.2202 10.9988 16.0677 11.5705 15.6627L10.4145 14.0307C10.283 14.1238 10.0381 14.2202 9.58623 14.2202L9.58623 16.2202ZM11.5652 15.6664C12.1624 15.2492 12.5271 14.6312 12.5271 13.8726H10.5271C10.5271 13.9185 10.5185 13.9321 10.5168 13.9352C10.5135 13.9413 10.4938 13.9752 10.4198 14.0269L11.5652 15.6664ZM12.5271 13.8726C12.5271 13.1444 12.1728 12.5452 11.5621 12.1751L10.5254 13.8855C10.5468 13.8984 10.5542 13.9059 10.5535 13.9053C10.5532 13.905 10.5513 13.903 10.5485 13.8993C10.5456 13.8956 10.5423 13.8908 10.539 13.8851C10.5357 13.8793 10.5329 13.8735 10.5307 13.868C10.5285 13.8625 10.5272 13.8582 10.5266 13.8556C10.5252 13.8501 10.5271 13.8546 10.5271 13.8726H12.5271ZM11.5714 12.1808C11.119 11.8998 10.5425 11.6979 9.89806 11.5447L9.43554 13.4905C9.98249 13.6205 10.324 13.7604 10.5161 13.8797L11.5714 12.1808ZM9.90512 11.5464L8.71128 11.2534L8.23462 13.1958L9.42847 13.4888L9.90512 11.5464ZM8.70573 11.2521C7.89994 11.0592 7.3413 10.7708 6.96624 10.4336L5.62907 11.9209C6.31846 12.5407 7.21002 12.9506 8.24016 13.1971L8.70573 11.2521ZM6.97338 10.4401C6.67986 10.171 6.50664 9.80816 6.50664 9.24365L4.50664 9.24365C4.50664 10.2905 4.86076 11.2167 5.62193 11.9144L6.97338 10.4401ZM6.50664 9.24365C6.50664 8.77632 6.62895 8.40922 6.85178 8.10092L5.23084 6.92935C4.74078 7.60739 4.50664 8.39263 4.50664 9.24365L6.50664 9.24365ZM6.8545 8.09713C7.09581 7.75996 7.43549 7.48197 7.90961 7.27291L7.10269 5.44291C6.33658 5.78072 5.69969 6.27422 5.22811 6.93314L6.8545 8.09713ZM7.91295 7.27143C8.39068 7.05869 8.95906 6.94043 9.6375 6.94043V4.94043C8.72414 4.94043 7.87162 5.10049 7.09935 5.44439L7.91295 7.27143ZM9.6375 6.94043C10.3344 6.94043 10.8946 7.05999 11.3439 7.26651L12.1792 5.44931C11.4175 5.09919 10.5617 4.94043 9.6375 4.94043V6.94043ZM11.3439 7.26651C11.8042 7.47811 12.1262 7.75261 12.3494 8.07923L14.0008 6.95104C13.5501 6.29134 12.9298 5.79436 12.1792 5.44931L11.3439 7.26651ZM12.3532 8.08477C12.5735 8.40259 12.6956 8.77523 12.7026 9.23683L14.7023 9.20653C14.6898 8.37907 14.4603 7.61401 13.997 6.9455L12.3532 8.08477ZM13.7024 8.22168H11.4759L11.4759 10.2217H13.7024L13.7024 8.22168ZM12.4717 9.13011C12.4084 8.44225 12.0963 7.84311 11.53 7.42268L10.3378 9.0285C10.416 9.08658 10.4652 9.1515 10.4801 9.31325L12.4717 9.13011ZM11.53 7.42268C10.9812 7.01526 10.3104 6.8667 9.62285 6.8667L9.62285 8.8667C10.0388 8.8667 10.242 8.9574 10.3378 9.0285L11.53 7.42268ZM9.62285 6.8667C8.93926 6.8667 8.25737 7.00709 7.71429 7.42754L8.93864 9.00899C9.00102 8.96069 9.1834 8.8667 9.62285 8.8667L9.62285 6.8667ZM7.72236 7.42136C7.1893 7.82545 6.87236 8.4046 6.87236 9.09717H8.87236C8.87236 9.07923 8.87422 9.07056 8.87464 9.06873C8.87499 9.06724 8.87487 9.06805 8.87431 9.06913C8.87191 9.07378 8.87994 9.05355 8.93057 9.01517L7.72236 7.42136ZM6.87236 9.09717C6.87236 9.84259 7.23268 10.4589 7.86691 10.8358L8.88856 9.11639C8.86498 9.10238 8.85579 9.09356 8.85504 9.09284C8.85463 9.09243 8.85586 9.09359 8.85807 9.09642C8.8603 9.09927 8.86295 9.1031 8.86561 9.10773C8.86828 9.11237 8.87043 9.11689 8.87203 9.12091C8.87363 9.1249 8.87433 9.12749 8.8745 9.12819C8.8749 9.12978 8.87236 9.12066 8.87236 9.09717H6.87236ZM7.8762 10.8412C8.31566 11.096 8.8168 11.281 9.36284 11.4105L9.82427 9.46448C9.42304 9.36934 9.11364 9.2468 8.87926 9.11093L7.8762 10.8412ZM9.35274 11.4081L10.3269 11.6498L10.8085 9.70863L9.83437 9.46693L9.35274 11.4081ZM10.35 11.6552C10.9053 11.7791 11.3769 11.9558 11.7747 12.1763L12.7445 10.4272C12.1559 10.1008 11.4996 9.86252 10.7854 9.70319L10.35 11.6552ZM11.7813 12.18C12.1466 12.3789 12.4076 12.6197 12.5921 12.8965L14.2562 11.7871C13.8743 11.2143 13.3589 10.7617 12.7378 10.4235L11.7813 12.18ZM12.595 12.9009C12.7466 13.1256 12.8489 13.4341 12.8489 13.8799H14.8489C14.8489 13.1148 14.6681 12.3978 14.2532 11.7827L12.595 12.9009ZM12.8489 13.8799C12.8489 14.5931 12.6015 15.093 12.108 15.4832L13.3486 17.0519C14.3493 16.2605 14.8489 15.1686 14.8489 13.8799H12.8489ZM12.108 15.4832C11.5956 15.8884 10.8058 16.1538 9.61553 16.1538V18.1538C11.0815 18.1538 12.3669 17.8284 13.3486 17.0519L12.108 15.4832ZM18.8083 8.81152L19.8083 8.81152V7.81152H18.8083V8.81152ZM18.8083 10.5254V11.5254H19.8083V10.5254H18.8083ZM17.2556 10.5254V9.52539H16.2556V10.5254H17.2556ZM18.3176 15.2568L18.1825 14.266L18.1762 14.2669L18.3176 15.2568ZM18.5959 15.2056L19.5743 14.9989L19.3599 13.9838L18.3534 14.2354L18.5959 15.2056ZM18.9548 16.9048L19.2359 17.8645L20.1246 17.6041L19.9332 16.6981L18.9548 16.9048ZM15.6589 16.502L14.9806 17.2368L14.9846 17.2404L15.6589 16.502ZM14.9924 10.5254H15.9924V9.52539H14.9924V10.5254ZM13.8791 10.5254H12.8791V11.5254H13.8791V10.5254ZM13.8791 8.81152L13.8791 7.81152H12.8791L12.8791 8.81152H13.8791ZM14.9924 8.81152V9.81152H15.9924V8.81152H14.9924ZM14.9924 6.86328V5.86328H13.9924V6.86328H14.9924ZM17.2556 6.86328H18.2556V5.86328H17.2556V6.86328ZM17.2556 8.81152H16.2556V9.81152H17.2556V8.81152ZM17.8083 8.81152V10.5254L19.8083 10.5254V8.81152L17.8083 8.81152ZM18.8083 9.52539H17.2556V11.5254L18.8083 11.5254V9.52539ZM16.2556 10.5254V14.4805H18.2556V10.5254H16.2556ZM16.2556 14.4805C16.2556 14.8938 16.3558 15.3888 16.7328 15.7764C17.1147 16.1691 17.6118 16.2788 18.0319 16.2788V14.2788C17.9853 14.2788 17.986 14.2725 18.0165 14.2829C18.0522 14.2952 18.1106 14.3245 18.1666 14.3821C18.2847 14.5035 18.2556 14.5993 18.2556 14.4805H16.2556ZM18.0319 16.2788C18.1746 16.2788 18.3176 16.267 18.459 16.2468L18.1762 14.2669C18.1124 14.276 18.065 14.2788 18.0319 14.2788V16.2788ZM18.4527 16.2477C18.5848 16.2297 18.7152 16.2065 18.8384 16.1757L18.3534 14.2354C18.3203 14.2437 18.2652 14.2547 18.1825 14.266L18.4527 16.2477ZM17.6175 15.4122L17.9764 17.1114L19.9332 16.6981L19.5743 14.9989L17.6175 15.4122ZM18.6737 15.9451C18.2717 16.0629 17.8977 16.1172 17.5485 16.1172V18.1172C18.1075 18.1172 18.671 18.0299 19.2359 17.8645L18.6737 15.9451ZM17.5485 16.1172C16.9029 16.1172 16.544 15.9559 16.3332 15.7635L14.9846 17.2404C15.6722 17.8683 16.573 18.1172 17.5485 18.1172V16.1172ZM16.3372 15.7671C16.1419 15.5869 15.9924 15.305 15.9924 14.7808H13.9924C13.9924 15.7311 14.2872 16.5967 14.9806 17.2368L16.3372 15.7671ZM15.9924 14.7808V10.5254H13.9924V14.7808H15.9924ZM14.9924 9.52539H13.8791V11.5254H14.9924V9.52539ZM14.8791 10.5254V8.81152H12.8791V10.5254H14.8791ZM13.8791 9.81152H14.9924L14.9924 7.81152H13.8791L13.8791 9.81152ZM15.9924 8.81152L15.9924 6.86328H13.9924L13.9924 8.81152H15.9924ZM14.9924 7.86328L17.2556 7.86328V5.86328L14.9924 5.86328V7.86328ZM16.2556 6.86328V8.81152H18.2556V6.86328L16.2556 6.86328ZM17.2556 9.81152H18.8083V7.81152H17.2556V9.81152Z" fill="url(#paint1_linear_78_42)" fill-opacity="0.15" mask="url(#path-2-outside-1_78_42)"/>
<defs>
<linearGradient id="paint0_linear_78_42" x1="0.461538" y1="0.923077" x2="21.6923" y2="23.5385" gradientUnits="userSpaceOnUse">
<stop stop-color="#323949"/>
<stop offset="1" stop-color="#101828"/>
</linearGradient>
<linearGradient id="paint1_linear_78_42" x1="0.461539" y1="12.0385" x2="0.538381" y2="13.9203" gradientUnits="userSpaceOnUse">
<stop stop-color="#101828"/>
<stop offset="0.948558" stop-color="#101828"/>
</linearGradient>
</defs>
</svg>
